<svg xmlns="http://www.w3.org/2000/svg" viewBox="0 0 111.16 36.42"><defs><style>.cls-1{fill:#00c7fc;}.cls-2{fill:#fff;}</style></defs><title>logo</title><g id="Layer_2" data-name="Layer 2"><g id="Layer_6" data-name="Layer 6"><path class="cls-1" d="M26.31,12.69a13.16,13.16,0,0,0-26.3,0H0V30c0,1.87,1,2.2,2.13.75h0l.18-.22a2.59,2.59,0,0,1,4.23,0l.07.08.06.09a2.61,2.61,0,0,0,4.24,0l.08-.09.07-.09a2.63,2.63,0,0,1,4.27,0l.13.17h0a2.62,2.62,0,0,0,4.25,0h0l.13-.17a2.61,2.61,0,0,1,4.25,0l.06.08.06.07c1.16,1.46,2.11,1.13,2.11-.74V12.69ZM8.58,13.89a2.34,2.34,0,1,1,2.34-2.34A2.33,2.33,0,0,1,8.58,13.89Zm9.16,0a2.34,2.34,0,1,1,2.34-2.34A2.33,2.33,0,0,1,17.74,13.89Z"/><path class="cls-2" d="M37.64,30a2.8,2.8,0,0,1-2-.77,2.68,2.68,0,0,1-.77-2c0-1.87,1.42-3.49,4.26-4.83q.18-1.42.48-4,.61-5.34.73-6.21a3.73,3.73,0,0,1,2.05-.63,8.25,8.25,0,0,1,1.63.12l-1.78,13.6Q41.47,30,37.64,30Zm-1-3.06c0,.58.28.87.82.87a1,1,0,0,0,.71-.45,2.83,2.83,0,0,0,.52-1.41l.19-1.49C37.35,25.3,36.6,26.13,36.6,26.91Zm16-2.26.77,1.18a7.15,7.15,0,0,1-1,2.19,4,4,0,0,1-1.33,1.27,4.85,4.85,0,0,1-2.33.68,3.46,3.46,0,0,1-2.85-1.12,4.75,4.75,0,0,1-1-3,15.53,15.53,0,0,0-.36-3.78,1.42,1.42,0,0,0-1.32-.84l.17-1.8a2.56,2.56,0,0,0,.67-.2,2.81,2.81,0,0,0,.62-.48c.55-.48.95-1.61,1.21-3.39a5,5,0,0,1,1.29-2.94,3,3,0,0,1,2.1-.91,3.21,3.21,0,0,1,2,.66,2.5,2.5,0,0,1,.87,2.13,4.63,4.63,0,0,1-1.41,3.37,13.26,13.26,0,0,1-3.91,2.58,2.55,2.55,0,0,1,1.27,1.37,5.78,5.78,0,0,1,.46,2c0,.7.06,1.39.07,2C48.73,27.22,49.18,28,50,28S51.89,26.88,52.63,24.65ZM50.29,14.3a.59.59,0,0,0-.4-.19.78.78,0,0,0-.3.05.45.45,0,0,0-.19.15,1.35,1.35,0,0,0-.14.22,3.23,3.23,0,0,0-.1.32c0,.15-.08.27-.1.38s-.06.25-.11.44l-.19.78c-.08.33-.18.67-.29,1,1.35-.86,2-1.73,2-2.6A.74.74,0,0,0,50.29,14.3Z"/><path class="cls-2" d="M63.4,29.94a2.91,2.91,0,0,1-2.94-1.54A3.9,3.9,0,0,1,57.25,30,4.48,4.48,0,0,1,54,28.64a4.67,4.67,0,0,1-1.33-3.48,6.81,6.81,0,0,1,1.85-5,6.29,6.29,0,0,1,4.69-1.88h.15a5.68,5.68,0,0,1,2.21.41,2.84,2.84,0,0,1,1.58-.41,2.73,2.73,0,0,1,1.33.24c-.14,1.19-.29,2.35-.45,3.5s-.28,2-.34,2.44a21.77,21.77,0,0,0-.22,2.36c0,.64.26,1,.77,1a1.8,1.8,0,0,0,1.28-.8,7.26,7.26,0,0,0,1.18-2.54,3.43,3.43,0,0,1,1,1.39A6.28,6.28,0,0,1,65.73,29,3.74,3.74,0,0,1,63.4,29.94Zm-3.88-9.81a2.92,2.92,0,0,0-2.44,1.16A6.43,6.43,0,0,0,56,24.77a3.55,3.55,0,0,0,.54,2.29,1.8,1.8,0,0,0,1.46.69c1,0,1.77-.71,2.28-2.14l.58-5.2A3.51,3.51,0,0,0,59.52,20.13Z"/><path class="cls-2" d="M76.57,22.46a4,4,0,0,1,1.91,3.3,3.67,3.67,0,0,1-1.5,3A5.93,5.93,0,0,1,73.23,30a3.93,3.93,0,0,1-2.44-.74,2.27,2.27,0,0,1-.26-3.53,3.33,3.33,0,0,1,1.81-.79,2.46,2.46,0,0,0-.51,1.39,1.38,1.38,0,0,0,.46,1.07,1.68,1.68,0,0,0,1.16.41,1.45,1.45,0,0,0,1.15-.52,1.71,1.71,0,0,0,.46-1.19,2.52,2.52,0,0,0-1-2,11.08,11.08,0,0,0-1.34-1c-.49-.3-.74-.46-.78-.47a.76.76,0,0,0-.19-.12c-.29.33-.7.79-1.25,1.38l-1.3,1.41a5.4,5.4,0,0,0-1.51,2.45,3.15,3.15,0,0,0-.05.74,2.36,2.36,0,0,0,.32,1.12,2.43,2.43,0,0,0,.78.86,6.08,6.08,0,0,0,.91.47,4,4,0,0,0,.77.25c.21.05.32.08.32.1s-.17.24-.53.39a6,6,0,0,1-2.06.36,3.6,3.6,0,0,1-3.45-3.59,4.67,4.67,0,0,1,.55-2.14,22.21,22.21,0,0,1,4.63-5.15,2.66,2.66,0,0,1-.89-1.9,2.23,2.23,0,0,1,.75-1.71,2.56,2.56,0,0,1,1.8-.7,2.16,2.16,0,0,1,1.63.75,1.79,1.79,0,0,1,.46,1.27,3.74,3.74,0,0,1-.51,1.73A23.5,23.5,0,0,1,76.57,22.46Zm-5.22-2.72c.39-.4.58-.69.58-.87a.56.56,0,0,0-.53-.65c-.4,0-.6.23-.6.68A1.15,1.15,0,0,0,71.35,19.74Z"/><path class="cls-2" d="M81.13,18.22c1,0,1.65.27,1.83.8a4.85,4.85,0,0,1,2.86-.8,3.89,3.89,0,0,1,3,1.42A4.9,4.9,0,0,1,90.06,23c0,.18,0,.37,0,.56a7,7,0,0,1-2.12,4.8A7,7,0,0,1,83.08,30a7.3,7.3,0,0,1-1.47-.17l-.77,6.62H77.69q1.55-13.26,2.07-18A3.89,3.89,0,0,1,81.13,18.22Zm5.54,4.91a3.62,3.62,0,0,0-.48-1.87,1.62,1.62,0,0,0-1.5-.82c-.91,0-1.61.59-2.09,1.78-.32,2.37-.51,3.75-.55,4.14a1.2,1.2,0,0,0,.45,1.08,1.92,1.92,0,0,0,1.18.36,2.41,2.41,0,0,0,2-1.1A6,6,0,0,0,86.67,23.13Z"/><path class="cls-2" d="M97.28,23.23A2.75,2.75,0,0,0,98,21.51a1.27,1.27,0,0,0-.45-1.13,1.72,1.72,0,0,0-1-.3,2.41,2.41,0,0,0-2,1.26,5.24,5.24,0,0,0-.85,3,3.58,3.58,0,0,0,.83,2.6,2.72,2.72,0,0,0,2,.85,5.71,5.71,0,0,0,3.47-1.25,9.25,9.25,0,0,0,2.69-3.27,5.46,5.46,0,0,1,1,1.25A10.31,10.31,0,0,1,101,28.07a8.3,8.3,0,0,1-2.39,1.37A8,8,0,0,1,95.7,30a5,5,0,0,1-3.8-1.47,5.72,5.72,0,0,1-1.49-4.07,5.93,5.93,0,0,1,1.86-4.33,6.16,6.16,0,0,1,4.47-1.85,5.22,5.22,0,0,1,3,.8,2.61,2.61,0,0,1,1.18,2.18,3.65,3.65,0,0,1-1.48,3,9.07,9.07,0,0,1-4.06,1.61l-.34-1.42A3.8,3.8,0,0,0,97.28,23.23Z"/><path class="cls-2" d="M108.89,21.4c0-.71-.32-1.06-1-1.06s-1.17.42-1.55,1.25a5.86,5.86,0,0,1,2.6,4.6A3.45,3.45,0,0,1,105.33,30,2.68,2.68,0,0,1,103,29a4,4,0,0,1-.72-2.46,5.54,5.54,0,0,1,0-.68l.84-7.34a6.2,6.2,0,0,1,1.76-.26c1,0,1.46.36,1.46,1.08v.05a3.11,3.11,0,0,1,2.46-1.13,2.57,2.57,0,0,1,1.68.49,1.63,1.63,0,0,1,.61,1.31,1.68,1.68,0,0,1-.62,1.34,2.42,2.42,0,0,1-1.6.52h-.1A2.32,2.32,0,0,0,108.89,21.4ZM106,23.28c-.29,2.31-.44,3.47-.44,3.49,0,.67.28,1,.82,1,.71,0,1.06-.57,1.06-1.71A4,4,0,0,0,106,23.28Z"/><path class="cls-1" d="M74.91,14.94H74.1V10.65H72.63V10h3.75v.69H74.91Z"/><path class="cls-1" d="M80.44,14.94H77.62V10h2.82v.68h-2V12h1.88v.68H78.43v1.57h2Z"/><path class="cls-1" d="M84.2,14.94l-1.45-4.17h0c0,.62.06,1.2.06,1.75v2.42h-.74V10h1.14l1.39,4h0L86,10h1.16v5h-.79V12.47c0-.24,0-.57,0-1s0-.64,0-.73h0l-1.5,4.16Z"/><path class="cls-1" d="M92,11.46a1.47,1.47,0,0,1-.51,1.2,2.31,2.31,0,0,1-1.46.41h-.51v1.87H88.7V10h1.44a2.15,2.15,0,0,1,1.4.38A1.36,1.36,0,0,1,92,11.46Zm-2.48.93H90a1.6,1.6,0,0,0,.92-.22.78.78,0,0,0,.29-.68.78.78,0,0,0-.26-.64,1.32,1.32,0,0,0-.82-.21h-.56Z"/><path class="cls-1" d="M93.31,14.94V10h.82v4.28h2.11v.7Z"/><path class="cls-1" d="M100.77,14.94l-.49-1.39H98.37l-.49,1.39H97l1.87-5h.89l1.86,5Zm-.71-2.09L99.6,11.5c0-.1-.09-.24-.15-.44s-.1-.33-.12-.42a6.93,6.93,0,0,1-.27.91l-.45,1.3Z"/><path class="cls-1" d="M104.44,14.94h-.81V10.65h-1.47V10h3.75v.69h-1.47Z"/><path class="cls-1" d="M109.81,14.94H107V10h2.82v.68h-2V12h1.88v.68h-1.88v1.57h2Z"/></g></g></svg>